#!OML:ASF I:\Actors\actors\Patient Classification 2\Patient 1\Session 1\actor1.ASF
:FULLY-SPECIFIED
:DEGREES
269
root -0.839127 17.8021 4.93586 26.452 3.80648 -2.48398
lowerback 24.5546 0.294059 0.726532
upperback -0.145715 0.443079 -1.05604
thorax -13.9911 0.0968648 -1.78673
lowerneck -16.5478 -3.27477 -4.27815
upperneck 4.71774 -4.05252 6.12178
head 4.28697 -1.7134 2.24914
rclavicle 3.18055e-015 -1.51076e-014
rhumerus -64.452 1.18185 -98.2503
rradius 115.459
rwrist 25.639
rhand -10.2118 -43.118
rfingers 7.12502
rthumb 15.7796 -72.4948
lclavicle 3.18055e-015 -1.51076e-014
lhumerus -54.0278 -13.7453 102.549
lradius 125.959
lwrist -19.3653
lhand 18.0842 -3.30806
lfingers 7.12502
lthumb 42.7464 21.0269
rfemur -46.0861 -14.2452 22.8059
rtibia 42.7793
rfoot -22.4233 3.14155
rtoes -13.6043
lfemur -53.8472 6.9781 -12.6949
ltibia 50.4226
lfoot -20.8214 -0.531282
ltoes -57.5368
270
root -0.843107 17.7984 4.92206 26.6483 3.76245 -2.39982
lowerback 24.6128 0.358222 0.942454
upperback -0.0541438 0.611642 -0.898613
thorax -13.9091 0.166315 -1.79043
lowerneck -16.7444 -3.40466 -4.58862
upperneck 5.1713 -4.1946 6.32445
head 4.47756 -1.76928 2.34629
rclavicle -1.21259e-014 1.15295e-014
rhumerus -64.408 0.956872 -97.8211
rradius 115.594
rwrist 25.4773
rhand -10.5192 -43.1915
rfingers 7.12502
rthumb 15.4837 -72.5915
lclavicle -1.21259e-014 1.15295e-014
lhumerus -53.8386 -14.1999 102.794
lradius 125.947
lwrist -19.2012
lhand 17.7145 -3.51154
lfingers 7.12502
lthumb 42.4003 20.943
rfemur -46.4572 -14.3331 22.8178
rtibia 42.9469
rfoot -22.3025 3.27486
rtoes -13.5576
lfemur -54.1786 7.17466 -12.9055
ltibia 50.4896
lfoot -20.6866 -0.671428
ltoes -57.5249
271
root -0.842799 17.7989 4.91176 26.7943 3.68286 -2.29469
lowerback 24.6945 0.401041 1.23704
upperback -0.00767784 0.763497 -0.820628
thorax -13.8919 0.217947 -1.92578
lowerneck -16.8515 -3.52958 -4.6968
upperneck 5.5336 -4.36896 6.48995
head 4.62357 -1.84117 2.39733
rclavicle 2.78299e-015 3.37934e-015
rhumerus -64.4075 0.693719 -97.6419
rradius 115.707
rwrist 25.1482
rhand -10.7103 -43.6051
rfingers 7.12502
rthumb 15.2995 -73.0192
lclavicle 2.78299e-015 3.37934e-015
lhumerus -53.725 -14.6133 102.89
lradius 125.917
lwrist -19.0105
lhand 17.595 -3.751
lfingers 7.12502
lthumb 42.2884 20.7417
rfemur -46.7321 -14.4709 22.7896
rtibia 43.0321
rfoot -22.125 3.41421
rtoes -13.4872
lfemur -54.3838 7.29121 -13.1019
ltibia 50.4992
lfoot -20.5842 -0.821567
ltoes -57.38
272
root -0.842541 17.8024 4.90512 26.8728 3.58374 -2.20987
lowerback 24.7521 0.329844 1.42114
upperback 0.00791136 0.731058 -0.76827
thorax -13.9057 0.192739 -1.96103
lowerneck -16.921 -3.4778 -4.49474
upperneck 5.88446 -4.37448 6.64582
head 4.74463 -1.82335 2.41173
rclavicle -2.24627e-014 1.45113e-014
rhumerus -64.4622 0.729477 -97.83
rradius 115.747
rwrist 24.7222
rhand -10.7108 -44.1608
rfingers 7.12502
rthumb 15.299 -73.575
lclavicle -2.24627e-014 1.45113e-014
lhumerus -53.6269 -14.6306 102.687
lradius 125.898
lwrist -18.8675
lhand 17.6692 -3.82572
lfingers 7.12502
lthumb 42.3579 20.6433
rfemur -46.8811 -14.5674 22.7487
rtibia 43.0519
rfoot -21.9641 3.51595
rtoes -13.5314
lfemur -54.4728 7.44066 -13.2852
ltibia 50.4617
lfoot -20.4836 -0.978453
ltoes -57.3119
273
root -0.844423 17.8085 4.90219 26.8975 3.45876 -2.12668
lowerback 24.7566 0.176761 1.42311
upperback -0.00542724 0.540861 -0.702381
thorax -13.9329 0.109816 -1.81866
lowerneck -16.8478 -3.23778 -3.86696
upperneck 6.20396 -4.19124 6.49741
head 4.80622 -1.72443 2.28133
rclavicle -8.94531e-015 -7.15625e-015
rhumerus -64.567 0.932078 -97.9833
rradius 115.695
rwrist 24.6036
rhand -10.5701 -43.8772
rfingers 7.12502
rthumb 15.4346 -73.2809
lclavicle -8.94531e-015 -7.15625e-015
lhumerus -53.6486 -14.2769 102.283
lradius 125.934
lwrist -18.8061
lhand 17.8026 -3.75306
lfingers 7.12502
lthumb 42.4828 20.6731
rfemur -46.9239 -14.5873 22.6691
rtibia 43.0245
rfoot -21.8376 3.58221
rtoes -13.5624
lfemur -54.4534 7.5907 -13.4577
ltibia 50.3882
lfoot -20.4173 -1.0993
ltoes -57.2376
274
root -0.849083 17.8156 4.90308 26.9065 3.29667 -2.05941
lowerback 24.7258 0.0946519 1.49476
upperback -0.0381917 0.465841 -0.617397
thorax -13.9576 0.0745649 -1.73551
lowerneck -16.8271 -3.11748 -3.46819
upperneck 6.66856 -4.128 6.38352
head 4.93411 -1.68408 2.18658
rclavicle -5.96354e-016 5.1684e-015
rhumerus -64.6906 1.01684 -98.0487
rradius 115.711
rwrist 24.6212
rhand -10.6366 -43.1874
rfingers 7.12502
rthumb 15.3706 -72.596
lclavicle -5.96354e-016 5.1684e-015
lhumerus -53.7681 -14.0696 102.017
lradius 125.978
lwrist -18.8342
lhand 17.9082 -3.66927
lfingers 7.12502
lthumb 42.5817 20.7228
rfemur -46.9142 -14.5009 22.5611
rtibia 42.9632
rfoot -21.7546 3.58113
rtoes -13.5483
lfemur -54.3713 7.66311 -13.5623
ltibia 50.2857
lfoot -20.3575 -1.02116
ltoes -57.2577
275
root -0.855809 17.8236 4.90848 26.8924 3.11187 -2.02091
lowerback 24.6458 0.0702962 1.6533
upperback -0.0708821 0.494024 -0.507623
thorax -13.9498 0.0811472 -1.71037
lowerneck -16.8713 -3.09834 -3.35445
upperneck 7.19899 -4.15286 6.38022
head 5.10623 -1.68433 2.16359
rclavicle -1.49089e-014 -2.78299e-015
rhumerus -64.8206 1.08846 -98.218
rradius 115.826
rwrist 24.5441
rhand -10.9611 -43.2901
rfingers 7.12502
rthumb 15.058 -72.7225
lclavicle -1.49089e-014 -2.78299e-015
lhumerus -53.892 -14.0351 101.899
lradius 125.991
lwrist -18.9306
lhand 17.8359 -3.59345
lfingers 7.12502
lthumb 42.514 20.822
rfemur -46.8536 -14.3566 22.4562
rtibia 42.878
rfoot -21.6926 3.51755
rtoes -13.8203
lfemur -54.2374 7.7606 -13.6389
ltibia 50.157
lfoot -20.2643 -0.885196
ltoes -57.3682
276
root -0.861826 17.8337 4.91597 26.8304 2.95154 -1.96474
lowerback 24.5694 0.0208451 1.82639
upperback -0.101661 0.493374 -0.397577
thorax -13.9429 0.0737698 -1.68302
lowerneck -16.871 -3.05233 -3.18107
upperneck 7.65863 -4.1364 6.24423
head 5.24267 -1.67353 2.09365
rclavicle -8.84592e-015 1.0138e-014
rhumerus -64.9104 1.13709 -98.303
rradius 115.905
rwrist 24.5153
rhand -11.2361 -44.277
rfingers 7.12502
rthumb 14.7931 -73.729
lclavicle -8.84592e-015 1.0138e-014
lhumerus -53.919 -14.0055 101.762
lradius 125.933
lwrist -19.015
lhand 17.7764 -3.7177
lfingers 7.12502
lthumb 42.4583 20.7169
rfemur -46.7255 -14.2823 22.3441
rtibia 42.7774
rfoot -21.6031 3.46722
rtoes -14.2371
lfemur -54.0354 7.84454 -13.733
ltibia 50.01
lfoot -20.2065 -0.793219
ltoes -57.453
277
root -0.868913 17.8448 4.92491 26.733 2.83069 -1.88329
lowerback 24.4814 -0.0394455 2.01245
upperback -0.102748 0.484027 -0.269084
thorax -13.8948 0.0632946 -1.63859
lowerneck -16.9584 -3.01604 -3.04404
upperneck 8.09679 -4.11233 6.03507
head 5.38527 -1.66428 2.00644
rclavicle 6.95746e-016 -1.39149e-015
rhumerus -64.9239 1.14715 -98.2518
rradius 115.927
rwrist 24.5493
rhand -11.4143 -44.9927
rfingers 7.12502
rthumb 14.6214 -74.4572
lclavicle 6.95746e-016 -1.39149e-015
lhumerus -53.7372 -14.0354 101.648
lradius 125.805
lwrist -19.0356
lhand 17.9701 -3.74551
lfingers 7.12502
lthumb 42.6396 20.6266
rfemur -46.5322 -14.2401 22.2111
rtibia 42.6626
rfoot -21.5332 3.42944
rtoes -14.2672
lfemur -53.7867 7.87929 -13.8245
ltibia 49.8555
lfoot -20.2363 -0.654837
ltoes -57.6265
278
root -0.878178 17.8553 4.93533 26.6166 2.71985 -1.81456
lowerback 24.3371 -0.0966242 2.18226
upperback -0.0769721 0.47836 -0.0948108
thorax -13.7838 0.0589797 -1.53319
lowerneck -17.0971 -2.96544 -2.97171
upperneck 8.51342 -4.04611 5.78608
head 5.52815 -1.63947 1.92074
rclavicle 3.57812e-015 4.96962e-017
rhumerus -64.9061 1.20857 -98.1757
rradius 115.96
rwrist 24.5417
rhand -11.3777 -45.2233
rfingers 7.12502
rthumb 14.6566 -74.6853
lclavicle 3.57812e-015 4.96962e-017
lhumerus -53.5445 -14.1291 101.596
lradius 125.765
lwrist -18.9498
lhand 18.0958 -3.43517
lfingers 7.12502
lthumb 42.7572 20.896
rfemur -46.2913 -14.1419 22.0738
rtibia 42.5307
rfoot -21.5135 3.35614
rtoes -14.1848
lfemur -53.5134 7.96066 -13.9061
ltibia 49.7039
lfoot -20.2538 -0.528588
ltoes -57.8691
279
root -0.888841 17.866 4.94548 26.47 2.58097 -1.79111
lowerback 24.2883 -0.169713 2.42604
upperback -0.121146 0.469042 0.0335723
thorax -13.8084 0.0430539 -1.52309
lowerneck -17.1284 -2.87797 -2.78153
upperneck 8.95629 -3.94804 5.45539
head 5.65709 -1.60326 1.79409
rclavicle -2.55935e-015 3.47873e-015
rhumerus -64.9549 1.13192 -98.0519
rradius 115.972
rwrist 24.6751
rhand -10.989 -44.9667
rfingers 7.12502
rthumb 15.0311 -74.4011
lclavicle -2.55935e-015 3.47873e-015
lhumerus -53.618 -14.2164 101.538
lradius 125.819
lwrist -18.8543
lhand 17.9429 -3.20998
lfingers 7.12502
lthumb 42.6142 21.1709
rfemur -46.0093 -13.9728 21.9612
rtibia 42.377
rfoot -21.4966 3.26392
rtoes -14.129
lfemur -53.2036 8.10012 -13.9396
ltibia 49.5566
lfoot -20.2087 -0.5545
ltoes -57.9153
280
root -0.901107 17.8769 4.95588 26.3122 2.41787 -1.79579
lowerback 24.2301 -0.220422 2.64075
upperback -0.161862 0.483231 0.182525
thorax -13.8231 0.0408443 -1.48091
lowerneck -17.1646 -2.77554 -2.48621
upperneck 9.36399 -3.82997 4.97413
head 5.77033 -1.56619 1.60449
rclavicle 2.45375e-015 8.18123e-015
rhumerus -64.9484 0.965434 -97.7377
rradius 115.919
rwrist 25.0408
rhand -10.5487 -44.0746
rfingers 7.12502
rthumb 15.4552 -73.4768
lclavicle 2.45375e-015 8.18123e-015
lhumerus -53.6862 -14.2547 101.577
lradius 125.845
lwrist -18.8415
lhand 17.7644 -3.25133
lfingers 7.12502
lthumb 42.4471 21.1871
rfemur -45.7034 -13.7542 21.8699
rtibia 42.1962
rfoot -21.5076 3.18701
rtoes -13.7912
lfemur -52.8734 8.26325 -13.9358
ltibia 49.4074
lfoot -20.0471 -0.563683
ltoes -57.701
281
root -0.912334 17.8892 4.96782 26.1425 2.28225 -1.76509
lowerback 24.1569 -0.291276 2.84747
upperback -0.180048 0.468787 0.339805
thorax -13.8042 0.0274226 -1.41432
lowerneck -17.2921 -2.674 -2.25967
upperneck 9.71366 -3.69959 4.55252
head 5.88357 -1.5212 1.44532
rclavicle 5.19325e-015 9.49197e-015
rhumerus -64.924 0.89528 -97.545
rradius 115.912
rwrist 25.2425
rhand -10.3542 -43.5607
rfingers 7.12502
rthumb 15.6426 -72.9483
lclavicle 5.19325e-015 9.49197e-015
lhumerus -53.6382 -14.3391 101.583
lradius 125.846
lwrist -18.7986
lhand 17.6085 -3.31427
lfingers 7.12502
lthumb 42.301 21.1741
rfemur -45.3537 -13.5767 21.7515
rtibia 41.9808
rfoot -21.5571 3.09728
rtoes -13.469
lfemur -52.5126 8.37364 -13.9571
ltibia 49.2495
lfoot -19.7848 -0.397321
ltoes -57.4336
282
root -0.922259 17.9044 4.98072 25.9338 2.16838 -1.68687
lowerback 24.0923 -0.397811 3.02956
upperback -0.182843 0.399494 0.491612
thorax -13.7747 -0.00891859 -1.32069
lowerneck -17.3829 -2.56876 -2.11193
upperneck 9.96506 -3.55602 4.23664
head 5.96398 -1.46682 1.33428
rclavicle 3.47873e-016 9.74045e-015
rhumerus -64.9141 0.934991 -97.52
rradius 115.962
rwrist 25.2189
rhand -10.2452 -43.5868
rfingers 7.12502
rthumb 15.7475 -72.9662
lclavicle 3.47873e-016 9.74045e-015
lhumerus -53.5894 -14.3999 101.508
lradius 125.871
lwrist -18.7595
lhand 17.7004 -3.24923
lfingers 7.12502
lthumb 42.3871 21.2098
rfemur -44.932 -13.4483 21.5841
rtibia 41.7287
rfoot -21.5793 2.95899
rtoes -13.4131
lfemur -52.1086 8.45416 -14.0304
ltibia 49.0786
lfoot -19.6184 -0.295339
ltoes -57.4062
